# xmcd
#
# Track frame offsets:
# 150
# 14436
# 30137
# 45747
# 60929
# 74680
# 93300
# 107850
# 127350
# 144675
# 164687
#
# Disc length: 2413 seconds
#
# Revision: 3
# Processed by: cddbd v1.5.2PL0 Copyright (c) Steve Scherf et al.
# Submitted via: Axialis_AX_CDPlayer 2.6
#
DISCID=9d096b0b
DTITLE=שרית חדד - ילדה של אהבה
DYEAR=2002
DGENRE=ים תיכונית
TTITLE0=שרופה עליו
TTITLE1=אתה תותח
TTITLE2=כיאלו כזה
TTITLE3=נדלק ביחד נר
TTITLE4=אני לא מדונה
TTITLE5=לא טוב לשנינו
TTITLE6=מיסטר די.ג'י.
TTITLE7=לראות את הכאב
TTITLE8=ילדה של האהבה
TTITLE9=העצב בתוכי
TTITLE10=קרנבל
EXTD=
EXTT0=
EXTT1=
EXTT2=
EXTT3=
EXTT4=
EXTT5=
EXTT6=
EXTT7=
EXTT8=
EXTT9=
EXTT10=
PLAYORDER=
